name C:/MyDriveSym/Projects/mobilecap/Data\Session20210827_0002\mocap\ForceDataProcessed\walkingTS3_forces.mot
datacolumns 19
datarows 12
range 0.38450000 0.39000000
endheader 
time	R_ground_force_vx	R_ground_force_vy	R_ground_force_vz	R_ground_force_px	R_ground_force_py	R_ground_force_pz	R_ground_torque_x	R_ground_torque_y	R_ground_torque_z	L_ground_force_vx	L_ground_force_vy	L_ground_force_vz	L_ground_force_px	L_ground_force_py	L_ground_force_pz	L_ground_torque_x	L_ground_torque_y	L_ground_torque_z	
          0.38450000	        -17.76383900	        510.08671800	         -5.04311300	          0.21977400	          0.00600000	         -0.20898600	          0.00000000	         -1.10068000	          0.00000000	          0.00000000	          0.00000000	          0.00000000	          0.67336700	          0.00000000	         -0.31384100	          0.00000000	          0.00000000	          0.00000000	
          0.38500000	        -17.61870400	        510.36150000	         -5.07858200	          0.21995100	          0.00600000	         -0.20896900	          0.00000000	         -1.11228100	          0.00000000	          0.00000000	          0.00000000	          0.00000000	          0.67336700	          0.00000000	         -0.31384100	          0.00000000	          0.00000000	          0.00000000	
          0.38550000	        -17.47361000	        510.63880500	         -5.11458100	          0.22012900	          0.00600000	         -0.20895300	          0.00000000	         -1.12389200	          0.00000000	          0.00000000	          0.00000000	          0.00000000	          0.67336700	          0.00000000	         -0.31384100	          0.00000000	          0.00000000	          0.00000000	
          0.38600000	        -17.32855300	        510.91860900	         -5.15110700	          0.22030700	          0.00600000	         -0.20893600	          0.00000000	         -1.13551300	          0.00000000	          0.00000000	          0.00000000	          0.00000000	          0.67336700	          0.00000000	         -0.31384100	          0.00000000	          0.00000000	          0.00000000	
          0.38650000	        -17.18352900	        511.20088600	         -5.18815900	          0.22048500	          0.00600000	         -0.20892000	          0.00000000	         -1.14714300	          0.00000000	          0.00000000	          0.00000000	          0.00000000	          0.67336700	          0.00000000	         -0.31384100	          0.00000000	          0.00000000	          0.00000000	
          0.38700000	        -17.03853300	        511.48561400	         -5.22573400	          0.22066400	          0.00600000	         -0.20890300	          0.00000000	         -1.15878200	          0.00000000	          0.00000000	          0.00000000	          0.00000000	          0.67336700	          0.00000000	         -0.31384100	          0.00000000	          0.00000000	          0.00000000	
          0.38750000	        -16.89356100	        511.77276900	         -5.26383000	          0.22084300	          0.00600000	         -0.20888600	          0.00000000	         -1.17043000	          0.00000000	          0.00000000	          0.00000000	          0.00000000	          0.67336700	          0.00000000	         -0.31384100	          0.00000000	          0.00000000	          0.00000000	
          0.38800000	        -16.74860900	        512.06232700	         -5.30244400	          0.22102300	          0.00600000	         -0.20886800	          0.00000000	         -1.18208700	          0.00000000	          0.00000000	          0.00000000	          0.00000000	          0.67336700	          0.00000000	         -0.31384100	          0.00000000	          0.00000000	          0.00000000	
          0.38850000	        -16.60367100	        512.35426400	         -5.34157400	          0.22120300	          0.00600000	         -0.20885100	          0.00000000	         -1.19375200	          0.00000000	          0.00000000	          0.00000000	          0.00000000	          0.67336700	          0.00000000	         -0.31384100	          0.00000000	          0.00000000	          0.00000000	
          0.38900000	        -16.45874300	        512.64855800	         -5.38121900	          0.22138400	          0.00600000	         -0.20883300	          0.00000000	         -1.20542400	          0.00000000	          0.00000000	          0.00000000	          0.00000000	          0.67336700	          0.00000000	         -0.31384100	          0.00000000	          0.00000000	          0.00000000	
          0.38950000	        -16.31382200	        512.94518400	         -5.42137400	          0.22156500	          0.00600000	         -0.20881600	          0.00000000	         -1.21710400	          0.00000000	          0.00000000	          0.00000000	          0.00000000	          0.67336700	          0.00000000	         -0.31384100	          0.00000000	          0.00000000	          0.00000000	
          0.39000000	        -16.16890200	        513.24412100	         -5.46203900	          0.22174600	          0.00600000	         -0.20879800	          0.00000000	         -1.22879100	          0.00000000	          0.00000000	          0.00000000	          0.00000000	          0.67336700	          0.00000000	         -0.31384100	          0.00000000	          0.00000000	          0.00000000	
